HIERARCHY
ROOT Pelvis
{
	OFFSET 0.000000 0.000000 0.000000
	CHANNELS 6 Xposition Yposition Zposition Xrotation Yrotation Zrotation
	JOINT LeftUpLeg_virtual
	{
		OFFSET 0.000000 0.000000 0.000000
		CHANNELS 3 Xrotation Yrotation Zrotation
		JOINT LeftUpLeg
		{
			OFFSET 18.735201 -5.666702 -4.541200
			CHANNELS 3 Xrotation Yrotation Zrotation
			JOINT LeftLeg
			{
				OFFSET -0.021200 -31.938179 0.493100
				CHANNELS 3 Xrotation Yrotation Zrotation
				JOINT LeftFoot
				{
					OFFSET 0.021200 -31.938179 -4.336299
					CHANNELS 3 Xrotation Yrotation Zrotation
					JOINT LeftToeBase
					{
						OFFSET 0.943001 -26.722000 15.023500
						CHANNELS 3 Xrotation Yrotation Zrotation
						End Site
						{
							OFFSET 0 0 0
						}
					}
				}
			}
		}
	}
	JOINT RightUpLeg_virtual
	{
		OFFSET 0.000000 0.000000 0.000000
		CHANNELS 3 Xrotation Yrotation Zrotation
		JOINT RightUpLeg
		{
			OFFSET -18.735201 -5.666702 -4.541200
			CHANNELS 3 Xrotation Yrotation Zrotation
			JOINT RightLeg
			{
				OFFSET 0.018946 -31.938133 0.493100
				CHANNELS 3 Xrotation Yrotation Zrotation
				JOINT RightFoot
				{
					OFFSET -0.018946 -31.938126 -4.336299
					CHANNELS 3 Xrotation Yrotation Zrotation
					JOINT RightToeBase
					{
						OFFSET -0.943001 -26.722004 15.023500
						CHANNELS 3 Xrotation Yrotation Zrotation
						End Site
						{
							OFFSET 0 0 0
						}
					}
				}
			}
		}
	}
	JOINT Hips_virtual
	{
		OFFSET 0.000000 0.000000 0.000000
		CHANNELS 3 Xrotation Yrotation Zrotation
		JOINT Hips
		{
			OFFSET -0.000000 -0.000000 -0.000000
			CHANNELS 3 Xrotation Yrotation Zrotation
			JOINT Spine
			{
				OFFSET 0.000000 10.199997 -0.299500
				CHANNELS 3 Xrotation Yrotation Zrotation
				JOINT Spine1
				{
					OFFSET 0.000000 11.900002 -1.516600
					CHANNELS 3 Xrotation Yrotation Zrotation
					JOINT Spine2
					{
						OFFSET 0.000000 13.600006 -2.842500
						CHANNELS 3 Xrotation Yrotation Zrotation
						JOINT Neck_virtual
						{
							OFFSET 0.000000 0.000000 0.000000
							CHANNELS 3 Xrotation Yrotation Zrotation
							JOINT Neck
							{
								OFFSET 0.000000 9.624100 -2.890100
								CHANNELS 3 Xrotation Yrotation Zrotation
								JOINT Head
								{
									OFFSET 0.000000 14.068802 -1.351900
									CHANNELS 3 Xrotation Yrotation Zrotation
									End Site
									{
										OFFSET 0 0 0
									}
								}
							}
						}
						JOINT LeftShoulder_virtual
						{
							OFFSET 0.000000 0.000000 0.000000
							CHANNELS 3 Xrotation Yrotation Zrotation
							JOINT LeftShoulder
							{
								OFFSET 15.263000 10.923401 -0.547700
								CHANNELS 3 Xrotation Yrotation Zrotation
								JOINT LeftArm
								{
									OFFSET 25.438599 -2.830597 -13.032500
									CHANNELS 3 Xrotation Yrotation Zrotation
									JOINT LeftForeArm
									{
										OFFSET 29.960503 0.000000 0.000000
										CHANNELS 3 Xrotation Yrotation Zrotation
										JOINT LeftHand
										{
											OFFSET 27.849251 0.000000 0.000000
											CHANNELS 3 Xrotation Yrotation Zrotation
											End Site
											{
												OFFSET 0 0 0
											}
										}
									}
								}
							}
						}
						JOINT RightShoulder_virtual
						{
							OFFSET 0.000000 0.000000 0.000000
							CHANNELS 3 Xrotation Yrotation Zrotation
							JOINT RightShoulder
							{
								OFFSET -15.263000 10.923401 -0.547700
								CHANNELS 3 Xrotation Yrotation Zrotation
								JOINT RightArm
								{
									OFFSET -25.438599 -2.830597 -13.032500
									CHANNELS 3 Xrotation Yrotation Zrotation
									JOINT RightForeArm
									{
										OFFSET -29.960503 0.000000 0.000000
										CHANNELS 3 Xrotation Yrotation Zrotation
										JOINT RightHand
										{
											OFFSET -27.849251 0.000000 0.000000
											CHANNELS 3 Xrotation Yrotation Zrotation
											End Site
											{
												OFFSET 0 0 0
											}
										}
									}
								}
							}
						}
					}
				}
			}
		}
	}
}
MOTION
Frames: 13
Frame Time: 0.03333333
-3.329610 87.255066 -0.797305 0.000000 0.000000 0.000000 3.746968 -43.584383 6.906851 -45.874563 -2.399678 21.974233 33.387180 -5.276934 -4.834362 -15.981130 -1.534955 -18.095119 0.000000 0.000000 0.000000 14.374562 -68.581779 6.985509 -28.669299 -23.436886 -27.255674 36.840203 9.672540 -0.813938 -15.414045 6.031092 15.655111 0.000000 0.000000 0.000000 -7.712171 -48.155347 0.783510 1.006056 -25.237901 -3.233151 6.239359 -10.048357 -3.183069 4.799168 -5.508123 -2.389427 0.000000 0.000000 0.000000 -1.584920 -5.437860 -0.047379 -1.396706 -0.347763 0.835207 0.000000 0.000000 0.000000 6.858829 -4.932466 0.828352 4.412717 -8.428835 8.535985 -30.700000 14.703239 -12.469495 -2.464362 -2.150672 1.368419 0.000000 0.000000 0.000000 0.679274 -6.272711 -1.776395 1.331820 -9.770075 -13.464884 -25.757280 42.573416 29.935288 -173.020918 59.212802 172.686539 0.000000 0.000000 0.000000 
-3.367802 87.251076 -0.807719 0.000000 0.000000 0.000000 3.757255 -43.594352 6.918994 -45.856387 -2.406365 21.976332 33.398723 -5.297858 -4.839817 -15.974216 -1.551804 -18.119397 0.000000 0.000000 0.000000 14.358390 -68.500022 6.938461 -28.624319 -23.413450 -27.260771 36.852668 9.630635 -0.801715 -15.401686 5.984685 15.646416 0.000000 0.000000 0.000000 -7.723850 -48.120807 0.779943 0.964925 -25.131824 -3.271400 6.255331 -10.081344 -3.176228 4.805746 -5.525026 -2.382535 0.000000 0.000000 0.000000 -1.599069 -5.465962 -0.032469 -1.404359 -0.350498 0.838487 0.000000 0.000000 0.000000 6.841677 -4.945404 0.837100 4.382827 -8.379207 8.519212 -30.700966 14.650489 -12.469619 -2.456149 -2.195449 1.365415 0.000000 0.000000 0.000000 0.673597 -6.283976 -1.751454 1.325647 -9.798269 -13.369815 -25.648953 42.370392 29.946172 -172.992231 59.268003 172.670939 0.000000 0.000000 0.000000 
-3.405550 87.246742 -0.819745 0.000000 0.000000 0.000000 3.767134 -43.603050 6.931499 -45.838919 -2.413022 21.979098 33.410174 -5.319361 -4.845323 -15.967213 -1.569236 -18.144169 0.000000 0.000000 0.000000 14.344826 -68.419494 6.894290 -28.579164 -23.390743 -27.265412 36.864720 9.588961 -0.789892 -15.389651 5.938707 15.637221 0.000000 0.000000 0.000000 -7.736381 -48.087879 0.775600 0.920712 -25.030319 -3.312834 6.271902 -10.114230 -3.169321 4.812173 -5.541740 -2.375461 0.000000 0.000000 0.000000 -1.613670 -5.493853 -0.016926 -1.412123 -0.353173 0.841987 0.000000 0.000000 0.000000 6.824934 -4.958861 0.846555 4.353938 -8.333073 8.504965 -30.703032 14.595354 -12.467673 -2.447841 -2.241861 1.363081 0.000000 0.000000 0.000000 0.667760 -6.294935 -1.725815 1.320028 -9.825172 -13.271107 -25.544624 42.166709 29.961905 -172.962178 59.324079 172.654000 0.000000 0.000000 0.000000 
-3.442996 87.241966 -0.833266 0.000000 0.000000 0.000000 3.776573 -43.610433 6.944523 -45.822332 -2.419703 21.982709 33.421393 -5.341451 -4.850979 -15.960275 -1.587193 -18.169538 0.000000 0.000000 0.000000 14.333744 -68.340291 6.852846 -28.533966 -23.368758 -27.269684 36.876458 9.547644 -0.778477 -15.377956 5.893249 15.627601 0.000000 0.000000 0.000000 -7.749739 -48.056777 0.770531 0.873674 -24.933532 -3.356807 6.289048 -10.146937 -3.162443 4.818481 -5.558245 -2.368297 0.000000 0.000000 0.000000 -1.628615 -5.521463 -0.000895 -1.419930 -0.355779 0.845641 0.000000 0.000000 0.000000 6.808861 -4.973015 0.856627 4.326383 -8.291512 8.493191 -30.705969 14.538712 -12.463600 -2.439371 -2.288789 1.361337 0.000000 0.000000 0.000000 0.661850 -6.305574 -1.699628 1.315077 -9.850829 -13.169420 -25.444692 41.962459 29.982198 -172.930582 59.381234 172.635463 0.000000 0.000000 0.000000 
-3.480290 87.236656 -0.848092 0.000000 0.000000 0.000000 3.785571 -43.616499 6.958162 -45.806756 -2.426438 21.987291 33.432290 -5.364116 -4.856848 -15.953512 -1.605615 -18.195545 0.000000 0.000000 0.000000 14.324957 -68.262570 6.813924 -28.488851 -23.347463 -27.273693 36.887990 9.506799 -0.767473 -15.366630 5.848405 15.617649 0.000000 0.000000 0.000000 -7.763895 -48.027821 0.764804 0.824092 -24.841663 -3.402586 6.306708 -10.179381 -3.155706 4.824684 -5.574517 -2.361147 0.000000 0.000000 0.000000 -1.643799 -5.548726 0.015471 -1.427716 -0.358307 0.849385 0.000000 0.000000 0.000000 6.793680 -4.988000 0.867213 4.300456 -8.255390 8.483792 -30.709603 14.481487 -12.457417 -2.430713 -2.335127 1.360078 0.000000 0.000000 0.000000 0.655963 -6.315883 -1.673053 1.310905 -9.875282 -13.065459 -25.349462 41.757762 30.006636 -172.897305 59.439632 172.615123 0.000000 0.000000 0.000000 
-3.517564 87.230698 -0.863971 0.000000 0.000000 0.000000 3.794163 -43.621427 6.972427 -45.792279 -2.433243 21.992857 33.442819 -5.387326 -4.862959 -15.947004 -1.624449 -18.222176 0.000000 0.000000 0.000000 14.318219 -68.186318 6.777248 -28.443933 -23.326833 -27.277540 36.899421 9.466541 -0.756873 -15.355677 5.804250 15.607459 0.000000 0.000000 0.000000 -7.778819 -48.001255 0.758492 0.772220 -24.754953 -3.449448 6.324767 -10.211479 -3.149229 4.830776 -5.590527 -2.354120 0.000000 0.000000 0.000000 -1.659117 -5.575579 0.032021 -1.435422 -0.360753 0.853156 0.000000 0.000000 0.000000 6.779586 -5.003904 0.878197 4.276404 -8.225401 8.476655 -30.713831 14.424601 -12.449131 -2.421866 -2.379798 1.359212 0.000000 0.000000 0.000000 0.650188 -6.325853 -1.646261 1.307616 -9.898583 -12.959968 -25.259144 41.552757 30.034732 -172.862239 59.499342 172.592788 0.000000 0.000000 0.000000 
-3.554905 87.223976 -0.880611 0.000000 0.000000 0.000000 3.802421 -43.625480 6.987246 -45.778906 -2.440109 21.999324 33.452935 -5.411043 -4.869308 -15.940861 -1.643647 -18.249376 0.000000 0.000000 0.000000 14.313238 -68.111685 6.742519 -28.399324 -23.306815 -27.281317 36.910851 9.426973 -0.746665 -15.345108 5.760855 15.597121 0.000000 0.000000 0.000000 -7.794516 -47.977322 0.751640 0.718224 -24.673707 -3.496772 6.343066 -10.243149 -3.143128 4.836723 -5.606247 -2.347325 0.000000 0.000000 0.000000 -1.674482 -5.601959 0.048623 -1.442998 -0.363117 0.856907 0.000000 0.000000 0.000000 6.766747 -5.020788 0.889467 4.254446 -8.202117 8.471680 -30.718550 14.368918 -12.438643 -2.412836 -2.421773 1.358694 0.000000 0.000000 0.000000 0.644601 -6.335465 -1.619425 1.305289 -9.920782 -12.853697 -25.173890 41.347568 30.065963 -172.825287 59.560513 172.568281 0.000000 0.000000 0.000000 
-3.592350 87.216400 -0.897700 0.000000 0.000000 0.000000 3.810431 -43.629032 7.002471 -45.766605 -2.447013 22.006519 33.462548 -5.435238 -4.875877 -15.935197 -1.663170 -18.277069 0.000000 0.000000 0.000000 14.309741 -68.038492 6.709440 -28.355105 -23.287325 -27.285107 36.922370 9.388161 -0.736818 -15.334920 5.718248 15.586738 0.000000 0.000000 0.000000 -7.811019 -47.956319 0.744260 0.662148 -24.598265 -3.544103 6.361395 -10.274297 -3.137509 4.842468 -5.621639 -2.340863 0.000000 0.000000 0.000000 -1.689833 -5.627815 0.065170 -1.450410 -0.365405 0.860606 0.000000 0.000000 0.000000 6.755308 -5.038694 0.900916 4.234773 -8.186031 8.468791 -30.723687 14.315247 -12.425700 -2.403624 -2.460081 1.358558 0.000000 0.000000 0.000000 0.639250 -6.344704 -1.592721 1.303973 -9.941918 -12.747394 -25.093845 41.142382 30.099868 -172.786342 59.623187 172.541452 0.000000 0.000000 0.000000 
-3.629893 87.207878 -0.914928 0.000000 0.000000 0.000000 3.818273 -43.632433 7.017909 -45.755284 -2.453911 22.014226 33.471571 -5.459882 -4.882637 -15.930139 -1.682990 -18.305158 0.000000 0.000000 0.000000 14.307458 -67.966748 6.677720 -28.311342 -23.268320 -27.288983 36.934050 9.350118 -0.727283 -15.325100 5.676407 15.576407 0.000000 0.000000 0.000000 -7.828404 -47.938519 0.736318 0.603902 -24.529016 -3.591173 6.379512 -10.304832 -3.132468 4.847933 -5.636666 -2.334831 0.000000 0.000000 0.000000 -1.705141 -5.653102 0.081588 -1.457645 -0.367627 0.864243 0.000000 0.000000 0.000000 6.745392 -5.057659 0.912445 4.217555 -8.177589 8.467947 -30.729158 14.264293 -12.409869 -2.394223 -2.493796 1.358925 0.000000 0.000000 0.000000 0.634147 -6.353547 -1.566323 1.303677 -9.962017 -12.641799 -25.019164 40.937350 30.136068 -172.745279 59.687452 172.512123 0.000000 0.000000 0.000000 
-3.667495 87.198364 -0.932000 0.000000 0.000000 0.000000 3.825994 -43.635961 7.033334 -45.744888 -2.460733 22.022214 33.479873 -5.484959 -4.889556 -15.925858 -1.703081 -18.333563 0.000000 0.000000 0.000000 14.306175 -67.896370 6.647112 -28.268077 -23.249725 -27.292992 36.945941 9.312800 -0.717981 -15.315632 5.635240 15.566215 0.000000 0.000000 0.000000 -7.846773 -47.924183 0.727755 0.543301 -24.466323 -3.637846 6.397152 -10.334647 -3.128102 4.853032 -5.651286 -2.329321 0.000000 0.000000 0.000000 -1.720411 -5.677781 0.097824 -1.464707 -0.369799 0.867822 0.000000 0.000000 0.000000 6.737100 -5.077713 0.923956 4.202938 -8.177204 8.469104 -30.734868 14.216719 -12.390572 -2.384619 -2.522041 1.359979 0.000000 0.000000 0.000000 0.629265 -6.361962 -1.540409 1.304362 -9.981055 -12.537651 -24.950090 40.732605 30.174294 -172.701921 59.753295 172.480090 0.000000 0.000000 0.000000 
-3.705116 87.187859 -0.948647 0.000000 0.000000 0.000000 3.833608 -43.639721 7.048515 -45.735367 -2.467401 22.030278 33.487263 -5.510444 -4.896607 -15.922530 -1.723416 -18.362183 0.000000 0.000000 0.000000 14.305735 -67.827214 6.617433 -28.225340 -23.231488 -27.297177 36.958027 9.276088 -0.708802 -15.306486 5.594574 15.556256 0.000000 0.000000 0.000000 -7.866229 -47.913558 0.718503 0.480145 -24.410500 -3.684031 6.414043 -10.363637 -3.124500 4.857674 -5.665458 -2.324422 0.000000 0.000000 0.000000 -1.735665 -5.701814 0.113823 -1.471613 -0.371936 0.871345 0.000000 0.000000 0.000000 6.730493 -5.098873 0.935341 4.191030 -8.185218 8.472155 -30.740742 14.173145 -12.367242 -2.374808 -2.543976 1.361918 0.000000 0.000000 0.000000 0.624538 -6.369913 -1.515160 1.305940 -9.998984 -12.435695 -24.886998 40.528348 30.214479 -172.656035 59.820723 172.445119 0.000000 0.000000 0.000000 
-3.742730 87.176407 -0.964641 0.000000 0.000000 0.000000 3.841091 -43.643778 7.063231 -45.726662 -2.473818 22.038222 33.493561 -5.536309 -4.903762 -15.920336 -1.743959 -18.390943 0.000000 0.000000 0.000000 14.306007 -67.759213 6.588525 -28.183143 -23.213533 -27.301548 36.970257 9.239824 -0.699606 -15.297641 5.554192 15.546631 0.000000 0.000000 0.000000 -7.886831 -47.906827 0.708523 0.414315 -24.361722 -3.729579 6.429930 -10.391679 -3.121754 4.861776 -5.679129 -2.320215 0.000000 0.000000 0.000000 -1.750923 -5.725164 0.129490 -1.478378 -0.374056 0.874798 0.000000 0.000000 0.000000 6.725595 -5.121140 0.946464 4.181877 -8.201862 8.476874 -30.746745 14.134221 -12.339420 -2.364819 -2.558803 1.364906 0.000000 0.000000 0.000000 0.619874 -6.377353 -1.490764 1.308280 -10.015719 -12.336734 -24.830357 40.324750 30.256655 -172.607350 59.889680 172.406911 0.000000 0.000000 0.000000 
-3.780343 87.164093 -0.979804 0.000000 0.000000 0.000000 3.848402 -43.648075 7.077271 -45.718763 -2.479890 22.045892 33.498533 -5.562511 -4.911003 -15.919462 -1.764656 -18.419769 0.000000 0.000000 0.000000 14.306889 -67.692243 6.560283 -28.141525 -23.195812 -27.306116 36.982554 9.203838 -0.690242 -15.289088 5.513863 15.537458 0.000000 0.000000 0.000000 -7.908580 -47.904085 0.697833 0.345876 -24.320027 -3.774194 6.444585 -10.418648 -3.119947 4.865264 -5.692251 -2.316775 0.000000 0.000000 0.000000 -1.766189 -5.747792 0.144664 -1.485013 -0.376172 0.878123 0.000000 0.000000 0.000000 6.722372 -5.144478 0.957153 4.175455 -8.227210 8.482853 -30.752903 14.100612 -12.306914 -2.354730 -2.565783 1.369007 0.000000 0.000000 0.000000 0.615167 -6.384236 -1.467429 1.311220 -10.031152 -12.241634 -24.780693 40.122017 30.300898 -172.555659 59.960045 172.365206 0.000000 0.000000 0.000000 
